<mxfile host="app.diagrams.net" modified="2021-06-09T14:16:47.097Z" agent="5.0 (Windows NT 10.0; Win64; x64) AppleWebKit/537.36 (KHTML, like Gecko) Chrome/89.0.4389.128 Safari/537.36 OPR/75.0.3969.282" etag="45eqRxzHk2xiAsi0JKqx" version="14.7.6" type="github">
  <diagram id="iNNtK2Z3TGCCOaJEVWlS" name="Page-1">
    <mxGraphModel dx="659" dy="827" grid="1" gridSize="10" guides="1" tooltips="1" connect="1" arrows="1" fold="1" page="1" pageScale="1" pageWidth="827" pageHeight="1169" math="0" shadow="0">
      <root>
        <mxCell id="0" />
        <mxCell id="1" parent="0" />
        <mxCell id="UFfIpobfscu9w0N3v_Js-2" style="edgeStyle=orthogonalEdgeStyle;rounded=0;orthogonalLoop=1;jettySize=auto;html=1;exitX=0.25;exitY=1;exitDx=0;exitDy=0;endArrow=none;endFill=0;strokeWidth=2;fontStyle=1;fontSize=11;shape=link;" parent="1" source="UFfIpobfscu9w0N3v_Js-7" target="UFfIpobfscu9w0N3v_Js-26" edge="1">
          <mxGeometry relative="1" as="geometry">
            <Array as="points">
              <mxPoint x="478" y="400" />
            </Array>
          </mxGeometry>
        </mxCell>
        <mxCell id="UFfIpobfscu9w0N3v_Js-3" style="edgeStyle=orthogonalEdgeStyle;rounded=0;orthogonalLoop=1;jettySize=auto;html=1;exitX=0;exitY=0.75;exitDx=0;exitDy=0;endArrow=none;endFill=0;strokeWidth=2;fontStyle=1;fontSize=11;entryX=0.5;entryY=0;entryDx=0;entryDy=0;" parent="1" source="UFfIpobfscu9w0N3v_Js-7" target="UFfIpobfscu9w0N3v_Js-86" edge="1">
          <mxGeometry relative="1" as="geometry">
            <mxPoint x="130" y="360" as="targetPoint" />
          </mxGeometry>
        </mxCell>
        <mxCell id="UFfIpobfscu9w0N3v_Js-4" style="edgeStyle=orthogonalEdgeStyle;rounded=0;orthogonalLoop=1;jettySize=auto;html=1;exitX=0;exitY=0.5;exitDx=0;exitDy=0;startArrow=none;startFill=0;endArrow=none;endFill=0;strokeWidth=2;fontStyle=1;fontSize=11;entryX=0;entryY=0.5;entryDx=0;entryDy=0;" parent="1" source="UFfIpobfscu9w0N3v_Js-7" target="UFfIpobfscu9w0N3v_Js-114" edge="1">
          <mxGeometry relative="1" as="geometry">
            <mxPoint x="720" y="920" as="targetPoint" />
            <Array as="points">
              <mxPoint x="90" y="350" />
              <mxPoint x="90" y="900" />
            </Array>
          </mxGeometry>
        </mxCell>
        <mxCell id="UFfIpobfscu9w0N3v_Js-5" style="edgeStyle=orthogonalEdgeStyle;rounded=0;orthogonalLoop=1;jettySize=auto;html=1;exitX=1;exitY=0.5;exitDx=0;exitDy=0;endArrow=none;endFill=0;entryX=0;entryY=0.5;entryDx=0;entryDy=0;strokeWidth=2;fontStyle=1;fontSize=11;shape=link;" parent="1" source="UFfIpobfscu9w0N3v_Js-7" target="UFfIpobfscu9w0N3v_Js-17" edge="1">
          <mxGeometry relative="1" as="geometry">
            <mxPoint x="590" y="380" as="targetPoint" />
          </mxGeometry>
        </mxCell>
        <mxCell id="UFfIpobfscu9w0N3v_Js-7" value="Livros" style="whiteSpace=wrap;html=1;align=center;strokeWidth=2;fontStyle=1;fontSize=11;" parent="1" vertex="1">
          <mxGeometry x="450" y="330" width="110" height="40" as="geometry" />
        </mxCell>
        <mxCell id="UFfIpobfscu9w0N3v_Js-8" style="edgeStyle=orthogonalEdgeStyle;rounded=0;orthogonalLoop=1;jettySize=auto;html=1;exitX=1;exitY=1;exitDx=0;exitDy=0;entryX=0.25;entryY=0;entryDx=0;entryDy=0;endArrow=none;endFill=0;strokeWidth=2;fontStyle=1;fontSize=11;" parent="1" source="UFfIpobfscu9w0N3v_Js-9" target="UFfIpobfscu9w0N3v_Js-7" edge="1">
          <mxGeometry relative="1" as="geometry" />
        </mxCell>
        <mxCell id="UFfIpobfscu9w0N3v_Js-9" value="IDLivro" style="ellipse;whiteSpace=wrap;html=1;align=center;fontStyle=5;strokeWidth=2;fontSize=11;" parent="1" vertex="1">
          <mxGeometry x="330" y="250" width="100" height="40" as="geometry" />
        </mxCell>
        <mxCell id="UFfIpobfscu9w0N3v_Js-10" style="edgeStyle=orthogonalEdgeStyle;rounded=0;orthogonalLoop=1;jettySize=auto;html=1;exitX=0.5;exitY=1;exitDx=0;exitDy=0;entryX=0.69;entryY=0.006;entryDx=0;entryDy=0;entryPerimeter=0;endArrow=none;endFill=0;strokeWidth=2;fontStyle=1;fontSize=11;" parent="1" source="UFfIpobfscu9w0N3v_Js-11" target="UFfIpobfscu9w0N3v_Js-7" edge="1">
          <mxGeometry relative="1" as="geometry">
            <Array as="points">
              <mxPoint x="526" y="279" />
            </Array>
          </mxGeometry>
        </mxCell>
        <mxCell id="UFfIpobfscu9w0N3v_Js-11" value="Titulo" style="ellipse;whiteSpace=wrap;html=1;align=center;strokeWidth=2;fontStyle=1;fontSize=11;" parent="1" vertex="1">
          <mxGeometry x="430" y="230" width="100" height="40" as="geometry" />
        </mxCell>
        <mxCell id="UFfIpobfscu9w0N3v_Js-12" style="edgeStyle=orthogonalEdgeStyle;rounded=0;orthogonalLoop=1;jettySize=auto;html=1;exitX=0;exitY=0.5;exitDx=0;exitDy=0;entryX=1;entryY=0;entryDx=0;entryDy=0;endArrow=none;endFill=0;strokeWidth=2;fontStyle=1;fontSize=11;" parent="1" source="UFfIpobfscu9w0N3v_Js-13" target="UFfIpobfscu9w0N3v_Js-7" edge="1">
          <mxGeometry relative="1" as="geometry">
            <Array as="points">
              <mxPoint x="560" y="310" />
            </Array>
          </mxGeometry>
        </mxCell>
        <mxCell id="UFfIpobfscu9w0N3v_Js-13" value="Editora" style="ellipse;whiteSpace=wrap;html=1;align=center;strokeWidth=2;fontStyle=1;fontSize=11;" parent="1" vertex="1">
          <mxGeometry x="570" y="290" width="100" height="40" as="geometry" />
        </mxCell>
        <mxCell id="UFfIpobfscu9w0N3v_Js-14" style="edgeStyle=orthogonalEdgeStyle;rounded=0;orthogonalLoop=1;jettySize=auto;html=1;exitX=1;exitY=0.5;exitDx=0;exitDy=0;entryX=0;entryY=0.25;entryDx=0;entryDy=0;endArrow=none;endFill=0;strokeWidth=2;fontStyle=1;fontSize=11;" parent="1" source="UFfIpobfscu9w0N3v_Js-15" target="UFfIpobfscu9w0N3v_Js-7" edge="1">
          <mxGeometry relative="1" as="geometry" />
        </mxCell>
        <mxCell id="UFfIpobfscu9w0N3v_Js-15" value="Edição" style="ellipse;whiteSpace=wrap;html=1;align=center;strokeWidth=2;fontStyle=1;fontSize=11;" parent="1" vertex="1">
          <mxGeometry x="310" y="300" width="100" height="40" as="geometry" />
        </mxCell>
        <mxCell id="UFfIpobfscu9w0N3v_Js-16" style="rounded=0;orthogonalLoop=1;jettySize=auto;html=1;exitX=1;exitY=0.5;exitDx=0;exitDy=0;entryX=0;entryY=0.5;entryDx=0;entryDy=0;endArrow=none;endFill=0;strokeWidth=2;fontStyle=1;fontSize=11;edgeStyle=orthogonalEdgeStyle;" parent="1" source="UFfIpobfscu9w0N3v_Js-17" target="UFfIpobfscu9w0N3v_Js-20" edge="1">
          <mxGeometry relative="1" as="geometry" />
        </mxCell>
        <mxCell id="UFfIpobfscu9w0N3v_Js-17" value="escritos por" style="shape=rhombus;perimeter=rhombusPerimeter;whiteSpace=wrap;html=1;align=center;strokeWidth=2;fontStyle=1;fontSize=11;" parent="1" vertex="1">
          <mxGeometry x="630" y="330" width="120" height="60" as="geometry" />
        </mxCell>
        <mxCell id="UFfIpobfscu9w0N3v_Js-18" style="edgeStyle=orthogonalEdgeStyle;rounded=0;orthogonalLoop=1;jettySize=auto;html=1;exitX=0;exitY=1;exitDx=0;exitDy=0;endArrow=none;endFill=0;strokeWidth=2;fontStyle=1;fontSize=11;entryX=1;entryY=0.5;entryDx=0;entryDy=0;" parent="1" source="UFfIpobfscu9w0N3v_Js-20" target="UFfIpobfscu9w0N3v_Js-38" edge="1">
          <mxGeometry relative="1" as="geometry">
            <mxPoint x="770" y="450" as="targetPoint" />
            <Array as="points">
              <mxPoint x="830" y="410" />
              <mxPoint x="830" y="740" />
            </Array>
          </mxGeometry>
        </mxCell>
        <mxCell id="UFfIpobfscu9w0N3v_Js-19" style="edgeStyle=orthogonalEdgeStyle;rounded=0;orthogonalLoop=1;jettySize=auto;html=1;exitX=1;exitY=0.25;exitDx=0;exitDy=0;endArrow=none;endFill=0;startArrow=classic;startFill=1;strokeWidth=2;fontStyle=1;fontSize=11;" parent="1" source="UFfIpobfscu9w0N3v_Js-20" edge="1">
          <mxGeometry relative="1" as="geometry">
            <mxPoint x="1000" y="380" as="targetPoint" />
          </mxGeometry>
        </mxCell>
        <mxCell id="UFfIpobfscu9w0N3v_Js-20" value="Autores" style="whiteSpace=wrap;html=1;align=center;strokeWidth=2;fontStyle=1;fontSize=11;" parent="1" vertex="1">
          <mxGeometry x="810" y="370" width="100" height="40" as="geometry" />
        </mxCell>
        <mxCell id="UFfIpobfscu9w0N3v_Js-150" style="edgeStyle=orthogonalEdgeStyle;rounded=0;orthogonalLoop=1;jettySize=auto;html=1;exitX=0.5;exitY=1;exitDx=0;exitDy=0;entryX=0.25;entryY=0;entryDx=0;entryDy=0;startArrow=none;startFill=0;endArrow=none;endFill=0;strokeColor=#000000;strokeWidth=2;" parent="1" source="UFfIpobfscu9w0N3v_Js-22" target="UFfIpobfscu9w0N3v_Js-20" edge="1">
          <mxGeometry relative="1" as="geometry" />
        </mxCell>
        <mxCell id="UFfIpobfscu9w0N3v_Js-22" value="Pseudónimo" style="ellipse;whiteSpace=wrap;html=1;align=center;strokeWidth=2;fontStyle=1;fontSize=11;" parent="1" vertex="1">
          <mxGeometry x="750" y="300" width="100" height="40" as="geometry" />
        </mxCell>
        <mxCell id="UFfIpobfscu9w0N3v_Js-151" style="edgeStyle=orthogonalEdgeStyle;rounded=0;orthogonalLoop=1;jettySize=auto;html=1;exitX=0.5;exitY=1;exitDx=0;exitDy=0;entryX=0.75;entryY=0;entryDx=0;entryDy=0;startArrow=none;startFill=0;endArrow=none;endFill=0;strokeColor=#000000;strokeWidth=2;" parent="1" source="UFfIpobfscu9w0N3v_Js-24" target="UFfIpobfscu9w0N3v_Js-20" edge="1">
          <mxGeometry relative="1" as="geometry" />
        </mxCell>
        <mxCell id="UFfIpobfscu9w0N3v_Js-24" value="&lt;span style=&quot;font-size: 11px&quot;&gt;IdAutor&lt;/span&gt;" style="ellipse;whiteSpace=wrap;html=1;align=center;strokeWidth=2;fontStyle=1;fontSize=11;" parent="1" vertex="1">
          <mxGeometry x="850" y="310" width="100" height="40" as="geometry" />
        </mxCell>
        <mxCell id="UFfIpobfscu9w0N3v_Js-25" style="edgeStyle=orthogonalEdgeStyle;rounded=0;orthogonalLoop=1;jettySize=auto;html=1;exitX=0.5;exitY=1;exitDx=0;exitDy=0;endArrow=none;endFill=0;strokeWidth=2;fontStyle=1;fontSize=11;" parent="1" source="UFfIpobfscu9w0N3v_Js-26" edge="1">
          <mxGeometry relative="1" as="geometry">
            <mxPoint x="340" y="500" as="targetPoint" />
            <Array as="points">
              <mxPoint x="340" y="490" />
              <mxPoint x="340" y="490" />
            </Array>
          </mxGeometry>
        </mxCell>
        <mxCell id="UFfIpobfscu9w0N3v_Js-26" value="de" style="shape=rhombus;perimeter=rhombusPerimeter;whiteSpace=wrap;html=1;align=center;strokeWidth=2;fontStyle=1;fontSize=11;" parent="1" vertex="1">
          <mxGeometry x="280" y="370" width="120" height="60" as="geometry" />
        </mxCell>
        <mxCell id="UFfIpobfscu9w0N3v_Js-27" value="Temas" style="whiteSpace=wrap;html=1;align=center;strokeWidth=2;fontStyle=1;fontSize=11;" parent="1" vertex="1">
          <mxGeometry x="280" y="470" width="100" height="40" as="geometry" />
        </mxCell>
        <mxCell id="UFfIpobfscu9w0N3v_Js-28" style="edgeStyle=orthogonalEdgeStyle;rounded=0;orthogonalLoop=1;jettySize=auto;html=1;exitX=0;exitY=0.5;exitDx=0;exitDy=0;entryX=1;entryY=0.5;entryDx=0;entryDy=0;endArrow=none;endFill=0;strokeWidth=2;fontStyle=1;fontSize=11;" parent="1" source="UFfIpobfscu9w0N3v_Js-29" target="UFfIpobfscu9w0N3v_Js-27" edge="1">
          <mxGeometry relative="1" as="geometry" />
        </mxCell>
        <mxCell id="UFfIpobfscu9w0N3v_Js-29" value="nomeTema" style="ellipse;whiteSpace=wrap;html=1;align=center;strokeWidth=2;fontStyle=1;fontSize=11;" parent="1" vertex="1">
          <mxGeometry x="390" y="480" width="100" height="40" as="geometry" />
        </mxCell>
        <mxCell id="UFfIpobfscu9w0N3v_Js-30" style="edgeStyle=orthogonalEdgeStyle;rounded=0;orthogonalLoop=1;jettySize=auto;html=1;exitX=0;exitY=0.5;exitDx=0;exitDy=0;entryX=0;entryY=0.5;entryDx=0;entryDy=0;endArrow=none;endFill=0;strokeWidth=2;fontStyle=1;fontSize=11;" parent="1" source="UFfIpobfscu9w0N3v_Js-31" target="UFfIpobfscu9w0N3v_Js-38" edge="1">
          <mxGeometry relative="1" as="geometry" />
        </mxCell>
        <mxCell id="UFfIpobfscu9w0N3v_Js-31" value="Pessoas" style="whiteSpace=wrap;html=1;align=center;strokeWidth=2;fontStyle=1;fontSize=11;" parent="1" vertex="1">
          <mxGeometry x="980" y="830" width="100" height="40" as="geometry" />
        </mxCell>
        <mxCell id="UFfIpobfscu9w0N3v_Js-32" style="edgeStyle=orthogonalEdgeStyle;rounded=0;orthogonalLoop=1;jettySize=auto;html=1;exitX=0;exitY=1;exitDx=0;exitDy=0;entryX=0.64;entryY=-0.025;entryDx=0;entryDy=0;entryPerimeter=0;endArrow=none;endFill=0;strokeWidth=2;fontStyle=1;fontSize=11;" parent="1" source="UFfIpobfscu9w0N3v_Js-33" target="UFfIpobfscu9w0N3v_Js-31" edge="1">
          <mxGeometry relative="1" as="geometry" />
        </mxCell>
        <mxCell id="UFfIpobfscu9w0N3v_Js-33" value="NomePessoa" style="ellipse;whiteSpace=wrap;html=1;align=center;strokeWidth=2;fontStyle=1;fontSize=11;" parent="1" vertex="1">
          <mxGeometry x="1030" y="730" width="100" height="40" as="geometry" />
        </mxCell>
        <mxCell id="UFfIpobfscu9w0N3v_Js-34" style="edgeStyle=orthogonalEdgeStyle;rounded=0;orthogonalLoop=1;jettySize=auto;html=1;exitX=0;exitY=1;exitDx=0;exitDy=0;entryX=1;entryY=0;entryDx=0;entryDy=0;endArrow=none;endFill=0;strokeWidth=2;fontStyle=1;fontSize=11;" parent="1" source="UFfIpobfscu9w0N3v_Js-35" target="UFfIpobfscu9w0N3v_Js-31" edge="1">
          <mxGeometry relative="1" as="geometry" />
        </mxCell>
        <mxCell id="UFfIpobfscu9w0N3v_Js-35" value="dataNascimento" style="ellipse;whiteSpace=wrap;html=1;align=center;strokeWidth=2;fontStyle=1;fontSize=11;" parent="1" vertex="1">
          <mxGeometry x="1060" y="780" width="100" height="40" as="geometry" />
        </mxCell>
        <mxCell id="UFfIpobfscu9w0N3v_Js-36" style="edgeStyle=orthogonalEdgeStyle;rounded=0;orthogonalLoop=1;jettySize=auto;html=1;exitX=0;exitY=0.5;exitDx=0;exitDy=0;entryX=1;entryY=0.5;entryDx=0;entryDy=0;endArrow=none;endFill=0;strokeWidth=2;fontStyle=1;fontSize=11;" parent="1" source="UFfIpobfscu9w0N3v_Js-37" target="UFfIpobfscu9w0N3v_Js-31" edge="1">
          <mxGeometry relative="1" as="geometry" />
        </mxCell>
        <mxCell id="UFfIpobfscu9w0N3v_Js-37" value="BI" style="ellipse;whiteSpace=wrap;html=1;align=center;fontStyle=5;strokeWidth=2;fontSize=11;" parent="1" vertex="1">
          <mxGeometry x="1090" y="830" width="100" height="40" as="geometry" />
        </mxCell>
        <mxCell id="UFfIpobfscu9w0N3v_Js-38" value="" style="triangle;whiteSpace=wrap;html=1;rotation=-90;strokeWidth=2;fontStyle=1;fontSize=11;" parent="1" vertex="1">
          <mxGeometry x="910" y="730" width="60" height="80" as="geometry" />
        </mxCell>
        <mxCell id="UFfIpobfscu9w0N3v_Js-39" value="ISA" style="text;html=1;align=center;verticalAlign=middle;resizable=0;points=[];autosize=1;strokeColor=none;strokeWidth=2;fontStyle=1;fontSize=11;" parent="1" vertex="1">
          <mxGeometry x="925" y="760" width="30" height="20" as="geometry" />
        </mxCell>
        <mxCell id="UFfIpobfscu9w0N3v_Js-40" value="" style="endArrow=none;html=1;strokeWidth=2;fontStyle=1;fontSize=11;" parent="1" edge="1">
          <mxGeometry width="50" height="50" relative="1" as="geometry">
            <mxPoint x="770" y="530" as="sourcePoint" />
            <mxPoint x="830" y="530" as="targetPoint" />
            <Array as="points" />
          </mxGeometry>
        </mxCell>
        <mxCell id="UFfIpobfscu9w0N3v_Js-41" style="edgeStyle=orthogonalEdgeStyle;rounded=0;orthogonalLoop=1;jettySize=auto;html=1;exitX=0.804;exitY=0.008;exitDx=0;exitDy=0;entryX=0.5;entryY=1;entryDx=0;entryDy=0;endArrow=none;endFill=0;strokeWidth=2;fontStyle=1;fontSize=11;shape=link;exitPerimeter=0;" parent="1" source="UFfIpobfscu9w0N3v_Js-44" target="UFfIpobfscu9w0N3v_Js-73" edge="1">
          <mxGeometry relative="1" as="geometry" />
        </mxCell>
        <mxCell id="nAspcygqVeWQ-AZVjqhS-2" style="edgeStyle=orthogonalEdgeStyle;rounded=0;orthogonalLoop=1;jettySize=auto;html=1;exitX=0;exitY=0.5;exitDx=0;exitDy=0;strokeWidth=2;endArrow=none;endFill=0;" parent="1" source="UFfIpobfscu9w0N3v_Js-44" edge="1">
          <mxGeometry relative="1" as="geometry">
            <mxPoint x="830" y="650.2857142857142" as="targetPoint" />
          </mxGeometry>
        </mxCell>
        <mxCell id="UFfIpobfscu9w0N3v_Js-44" value="Empregados" style="whiteSpace=wrap;html=1;align=center;strokeWidth=2;fontStyle=1;fontSize=11;" parent="1" vertex="1">
          <mxGeometry x="890" y="630" width="100" height="40" as="geometry" />
        </mxCell>
        <mxCell id="UFfIpobfscu9w0N3v_Js-45" style="edgeStyle=orthogonalEdgeStyle;rounded=0;orthogonalLoop=1;jettySize=auto;html=1;exitX=0.711;exitY=0.935;exitDx=0;exitDy=0;entryX=0.5;entryY=1;entryDx=0;entryDy=0;endArrow=none;endFill=0;strokeWidth=2;fontStyle=1;fontSize=11;exitPerimeter=0;" parent="1" source="UFfIpobfscu9w0N3v_Js-129" target="UFfIpobfscu9w0N3v_Js-44" edge="1">
          <mxGeometry relative="1" as="geometry">
            <mxPoint x="880" y="480" as="sourcePoint" />
            <Array as="points">
              <mxPoint x="961" y="670" />
            </Array>
          </mxGeometry>
        </mxCell>
        <mxCell id="UFfIpobfscu9w0N3v_Js-46" style="edgeStyle=orthogonalEdgeStyle;rounded=0;orthogonalLoop=1;jettySize=auto;html=1;exitX=0.5;exitY=1;exitDx=0;exitDy=0;entryX=0.134;entryY=-0.004;entryDx=0;entryDy=0;endArrow=none;endFill=0;strokeWidth=2;fontStyle=1;fontSize=11;entryPerimeter=0;" parent="1" source="UFfIpobfscu9w0N3v_Js-47" target="UFfIpobfscu9w0N3v_Js-44" edge="1">
          <mxGeometry relative="1" as="geometry">
            <Array as="points">
              <mxPoint x="903" y="580" />
              <mxPoint x="903" y="605" />
            </Array>
          </mxGeometry>
        </mxCell>
        <mxCell id="UFfIpobfscu9w0N3v_Js-47" value="salario" style="ellipse;whiteSpace=wrap;html=1;align=center;strokeWidth=2;fontStyle=1;fontSize=11;" parent="1" vertex="1">
          <mxGeometry x="850" y="570" width="100" height="40" as="geometry" />
        </mxCell>
        <mxCell id="UFfIpobfscu9w0N3v_Js-48" style="edgeStyle=orthogonalEdgeStyle;rounded=0;orthogonalLoop=1;jettySize=auto;html=1;exitX=1;exitY=0.5;exitDx=0;exitDy=0;endArrow=none;endFill=0;strokeWidth=2;fontStyle=1;fontSize=11;" parent="1" source="UFfIpobfscu9w0N3v_Js-50" edge="1">
          <mxGeometry relative="1" as="geometry">
            <mxPoint x="770" y="530" as="targetPoint" />
          </mxGeometry>
        </mxCell>
        <mxCell id="UFfIpobfscu9w0N3v_Js-49" style="edgeStyle=orthogonalEdgeStyle;rounded=0;orthogonalLoop=1;jettySize=auto;html=1;exitX=0.5;exitY=1;exitDx=0;exitDy=0;entryX=0;entryY=0.5;entryDx=0;entryDy=0;endArrow=none;endFill=0;strokeWidth=2;fontStyle=1;fontSize=11;" parent="1" source="UFfIpobfscu9w0N3v_Js-50" target="UFfIpobfscu9w0N3v_Js-53" edge="1">
          <mxGeometry relative="1" as="geometry" />
        </mxCell>
        <mxCell id="UFfIpobfscu9w0N3v_Js-50" value="Usuários" style="whiteSpace=wrap;html=1;align=center;strokeWidth=2;fontStyle=1;fontSize=11;" parent="1" vertex="1">
          <mxGeometry x="705" y="510" width="100" height="40" as="geometry" />
        </mxCell>
        <mxCell id="UFfIpobfscu9w0N3v_Js-51" style="edgeStyle=orthogonalEdgeStyle;rounded=0;orthogonalLoop=1;jettySize=auto;html=1;exitX=1;exitY=0.5;exitDx=0;exitDy=0;entryX=0.057;entryY=1.024;entryDx=0;entryDy=0;endArrow=none;endFill=0;strokeWidth=2;fontStyle=1;fontSize=11;entryPerimeter=0;" parent="1" source="UFfIpobfscu9w0N3v_Js-128" target="UFfIpobfscu9w0N3v_Js-50" edge="1">
          <mxGeometry relative="1" as="geometry">
            <mxPoint x="695" y="480" as="sourcePoint" />
          </mxGeometry>
        </mxCell>
        <mxCell id="UFfIpobfscu9w0N3v_Js-52" style="edgeStyle=orthogonalEdgeStyle;rounded=0;orthogonalLoop=1;jettySize=auto;html=1;exitX=1;exitY=0.5;exitDx=0;exitDy=0;entryX=0.5;entryY=0;entryDx=0;entryDy=0;endArrow=none;endFill=0;strokeWidth=2;fontStyle=1;fontSize=11;" parent="1" source="UFfIpobfscu9w0N3v_Js-53" target="UFfIpobfscu9w0N3v_Js-55" edge="1">
          <mxGeometry relative="1" as="geometry">
            <Array as="points">
              <mxPoint x="755" y="630" />
              <mxPoint x="675" y="630" />
            </Array>
          </mxGeometry>
        </mxCell>
        <mxCell id="UFfIpobfscu9w0N3v_Js-53" value="" style="triangle;whiteSpace=wrap;html=1;rotation=90;strokeWidth=2;fontStyle=1;fontSize=11;" parent="1" vertex="1">
          <mxGeometry x="725" y="550" width="60" height="80" as="geometry" />
        </mxCell>
        <mxCell id="UFfIpobfscu9w0N3v_Js-54" value="ISA" style="text;html=1;align=center;verticalAlign=middle;resizable=0;points=[];autosize=1;strokeColor=none;strokeWidth=2;fontStyle=1;fontSize=11;" parent="1" vertex="1">
          <mxGeometry x="740" y="572" width="30" height="20" as="geometry" />
        </mxCell>
        <mxCell id="UFfIpobfscu9w0N3v_Js-55" value="Membros" style="whiteSpace=wrap;html=1;align=center;strokeWidth=2;fontStyle=1;fontSize=11;" parent="1" vertex="1">
          <mxGeometry x="625" y="650" width="100" height="40" as="geometry" />
        </mxCell>
        <mxCell id="UFfIpobfscu9w0N3v_Js-56" style="edgeStyle=orthogonalEdgeStyle;rounded=0;orthogonalLoop=1;jettySize=auto;html=1;exitX=1;exitY=1;exitDx=0;exitDy=0;entryX=0.17;entryY=-0.025;entryDx=0;entryDy=0;entryPerimeter=0;endArrow=none;endFill=0;strokeWidth=2;fontStyle=1;fontSize=11;" parent="1" target="UFfIpobfscu9w0N3v_Js-55" edge="1">
          <mxGeometry relative="1" as="geometry">
            <mxPoint x="632.4999098908102" y="634.1666241151047" as="sourcePoint" />
          </mxGeometry>
        </mxCell>
        <mxCell id="UFfIpobfscu9w0N3v_Js-59" value="Reservas" style="whiteSpace=wrap;html=1;align=center;strokeWidth=2;fontStyle=1;fontSize=11;" parent="1" vertex="1">
          <mxGeometry x="340" y="660" width="100" height="40" as="geometry" />
        </mxCell>
        <mxCell id="UFfIpobfscu9w0N3v_Js-60" style="edgeStyle=orthogonalEdgeStyle;rounded=0;orthogonalLoop=1;jettySize=auto;html=1;exitX=0.5;exitY=1;exitDx=0;exitDy=0;entryX=0.19;entryY=-0.05;entryDx=0;entryDy=0;entryPerimeter=0;endArrow=none;endFill=0;strokeWidth=2;fontStyle=1;fontSize=11;" parent="1" source="UFfIpobfscu9w0N3v_Js-61" target="UFfIpobfscu9w0N3v_Js-59" edge="1">
          <mxGeometry relative="1" as="geometry" />
        </mxCell>
        <mxCell id="UFfIpobfscu9w0N3v_Js-61" value="idReserva" style="ellipse;whiteSpace=wrap;html=1;align=center;fontStyle=5;strokeWidth=2;fontSize=11;" parent="1" vertex="1">
          <mxGeometry x="290" y="600" width="100" height="40" as="geometry" />
        </mxCell>
        <mxCell id="UFfIpobfscu9w0N3v_Js-62" style="edgeStyle=orthogonalEdgeStyle;rounded=0;orthogonalLoop=1;jettySize=auto;html=1;exitX=1;exitY=0.5;exitDx=0;exitDy=0;endArrow=none;endFill=0;strokeWidth=2;fontStyle=1;fontSize=11;" parent="1" source="UFfIpobfscu9w0N3v_Js-63" edge="1">
          <mxGeometry relative="1" as="geometry">
            <mxPoint x="340" y="661" as="targetPoint" />
          </mxGeometry>
        </mxCell>
        <mxCell id="UFfIpobfscu9w0N3v_Js-63" value="dataInicio" style="ellipse;whiteSpace=wrap;html=1;align=center;strokeWidth=2;fontStyle=1;fontSize=11;" parent="1" vertex="1">
          <mxGeometry x="220" y="641" width="100" height="40" as="geometry" />
        </mxCell>
        <mxCell id="UFfIpobfscu9w0N3v_Js-64" style="edgeStyle=orthogonalEdgeStyle;rounded=0;orthogonalLoop=1;jettySize=auto;html=1;exitX=0.5;exitY=0;exitDx=0;exitDy=0;entryX=0.5;entryY=1;entryDx=0;entryDy=0;endArrow=none;endFill=0;strokeWidth=2;fontStyle=1;fontSize=11;" parent="1" source="UFfIpobfscu9w0N3v_Js-65" target="UFfIpobfscu9w0N3v_Js-59" edge="1">
          <mxGeometry relative="1" as="geometry" />
        </mxCell>
        <mxCell id="UFfIpobfscu9w0N3v_Js-65" value="dataDevolução" style="ellipse;whiteSpace=wrap;html=1;align=center;strokeWidth=2;fontStyle=1;fontSize=11;" parent="1" vertex="1">
          <mxGeometry x="330" y="710" width="100" height="40" as="geometry" />
        </mxCell>
        <mxCell id="UFfIpobfscu9w0N3v_Js-66" style="edgeStyle=orthogonalEdgeStyle;rounded=0;orthogonalLoop=1;jettySize=auto;html=1;exitX=0;exitY=0.5;exitDx=0;exitDy=0;entryX=1;entryY=0.5;entryDx=0;entryDy=0;endArrow=none;endFill=0;strokeWidth=2;fontStyle=1;fontSize=11;shape=link;" parent="1" source="UFfIpobfscu9w0N3v_Js-68" target="UFfIpobfscu9w0N3v_Js-59" edge="1">
          <mxGeometry relative="1" as="geometry" />
        </mxCell>
        <mxCell id="UFfIpobfscu9w0N3v_Js-67" style="edgeStyle=orthogonalEdgeStyle;rounded=0;orthogonalLoop=1;jettySize=auto;html=1;exitX=1;exitY=0.5;exitDx=0;exitDy=0;entryX=0;entryY=0.75;entryDx=0;entryDy=0;endArrow=classic;endFill=1;strokeWidth=2;fontStyle=1;fontSize=11;" parent="1" source="UFfIpobfscu9w0N3v_Js-68" target="UFfIpobfscu9w0N3v_Js-55" edge="1">
          <mxGeometry relative="1" as="geometry" />
        </mxCell>
        <mxCell id="UFfIpobfscu9w0N3v_Js-68" value="reservados por" style="shape=rhombus;perimeter=rhombusPerimeter;whiteSpace=wrap;html=1;align=center;strokeWidth=2;fontStyle=1;fontSize=11;" parent="1" vertex="1">
          <mxGeometry x="470" y="650" width="120" height="60" as="geometry" />
        </mxCell>
        <mxCell id="UFfIpobfscu9w0N3v_Js-69" style="edgeStyle=orthogonalEdgeStyle;rounded=0;orthogonalLoop=1;jettySize=auto;html=1;exitX=0.5;exitY=1;exitDx=0;exitDy=0;endArrow=none;endFill=0;strokeWidth=2;fontStyle=1;fontSize=11;shape=link;" parent="1" source="UFfIpobfscu9w0N3v_Js-71" edge="1">
          <mxGeometry relative="1" as="geometry">
            <mxPoint x="400" y="660" as="targetPoint" />
            <Array as="points">
              <mxPoint x="560" y="585" />
              <mxPoint x="400" y="585" />
              <mxPoint x="400" y="660" />
            </Array>
          </mxGeometry>
        </mxCell>
        <mxCell id="UFfIpobfscu9w0N3v_Js-70" style="edgeStyle=orthogonalEdgeStyle;rounded=0;orthogonalLoop=1;jettySize=auto;html=1;exitX=0.5;exitY=0;exitDx=0;exitDy=0;endArrow=classic;endFill=1;strokeWidth=2;fontStyle=1;fontSize=11;" parent="1" source="UFfIpobfscu9w0N3v_Js-71" edge="1">
          <mxGeometry relative="1" as="geometry">
            <mxPoint x="505" y="370" as="targetPoint" />
            <Array as="points">
              <mxPoint x="560" y="410" />
              <mxPoint x="505" y="410" />
            </Array>
          </mxGeometry>
        </mxCell>
        <mxCell id="UFfIpobfscu9w0N3v_Js-71" value="reservados" style="shape=rhombus;perimeter=rhombusPerimeter;whiteSpace=wrap;html=1;align=center;strokeWidth=2;fontStyle=1;fontSize=11;" parent="1" vertex="1">
          <mxGeometry x="500" y="450" width="120" height="60" as="geometry" />
        </mxCell>
        <mxCell id="UFfIpobfscu9w0N3v_Js-72" style="edgeStyle=orthogonalEdgeStyle;rounded=0;orthogonalLoop=1;jettySize=auto;html=1;exitX=0.5;exitY=0;exitDx=0;exitDy=0;endArrow=none;endFill=0;strokeWidth=2;fontStyle=1;fontSize=11;" parent="1" source="UFfIpobfscu9w0N3v_Js-73" edge="1">
          <mxGeometry relative="1" as="geometry">
            <mxPoint x="970" y="500" as="targetPoint" />
            <Array as="points" />
          </mxGeometry>
        </mxCell>
        <mxCell id="UFfIpobfscu9w0N3v_Js-73" value="trabalham em&amp;nbsp;" style="shape=rhombus;perimeter=rhombusPerimeter;whiteSpace=wrap;html=1;align=center;strokeWidth=2;fontStyle=1;fontSize=11;" parent="1" vertex="1">
          <mxGeometry x="910" y="520" width="120" height="60" as="geometry" />
        </mxCell>
        <mxCell id="UFfIpobfscu9w0N3v_Js-74" value="Postos Trabalho" style="whiteSpace=wrap;html=1;align=center;strokeWidth=2;fontStyle=1;fontSize=11;" parent="1" vertex="1">
          <mxGeometry x="920" y="460" width="120" height="40" as="geometry" />
        </mxCell>
        <mxCell id="UFfIpobfscu9w0N3v_Js-75" style="edgeStyle=orthogonalEdgeStyle;rounded=0;orthogonalLoop=1;jettySize=auto;html=1;exitX=0.5;exitY=1;exitDx=0;exitDy=0;entryX=0;entryY=0.5;entryDx=0;entryDy=0;endArrow=none;endFill=0;strokeWidth=2;fontStyle=1;fontSize=11;" parent="1" source="UFfIpobfscu9w0N3v_Js-76" target="UFfIpobfscu9w0N3v_Js-74" edge="1">
          <mxGeometry relative="1" as="geometry">
            <Array as="points">
              <mxPoint x="890" y="480" />
            </Array>
          </mxGeometry>
        </mxCell>
        <mxCell id="UFfIpobfscu9w0N3v_Js-76" value="descrTrabalho" style="ellipse;whiteSpace=wrap;html=1;align=center;strokeWidth=2;fontStyle=1;fontSize=11;" parent="1" vertex="1">
          <mxGeometry x="840" y="420" width="100" height="40" as="geometry" />
        </mxCell>
        <mxCell id="UFfIpobfscu9w0N3v_Js-77" style="edgeStyle=orthogonalEdgeStyle;rounded=0;orthogonalLoop=1;jettySize=auto;html=1;exitX=0.358;exitY=0.989;exitDx=0;exitDy=0;entryX=0.5;entryY=0;entryDx=0;entryDy=0;endArrow=none;endFill=0;strokeWidth=2;fontStyle=1;fontSize=11;exitPerimeter=0;" parent="1" source="UFfIpobfscu9w0N3v_Js-78" target="UFfIpobfscu9w0N3v_Js-74" edge="1">
          <mxGeometry relative="1" as="geometry">
            <Array as="points">
              <mxPoint x="980" y="450" />
            </Array>
          </mxGeometry>
        </mxCell>
        <mxCell id="UFfIpobfscu9w0N3v_Js-78" value="idTrabalho" style="ellipse;whiteSpace=wrap;html=1;align=center;fontStyle=5;strokeWidth=2;fontSize=11;" parent="1" vertex="1">
          <mxGeometry x="944" y="410" width="100" height="40" as="geometry" />
        </mxCell>
        <mxCell id="UFfIpobfscu9w0N3v_Js-81" value="" style="edgeStyle=orthogonalEdgeStyle;rounded=0;orthogonalLoop=1;jettySize=auto;html=1;endArrow=none;endFill=0;strokeWidth=2;fontStyle=1;fontSize=11;" parent="1" source="UFfIpobfscu9w0N3v_Js-84" target="UFfIpobfscu9w0N3v_Js-91" edge="1">
          <mxGeometry relative="1" as="geometry" />
        </mxCell>
        <mxCell id="UFfIpobfscu9w0N3v_Js-83" style="edgeStyle=orthogonalEdgeStyle;rounded=0;orthogonalLoop=1;jettySize=auto;html=1;exitX=1;exitY=0.5;exitDx=0;exitDy=0;endArrow=none;endFill=0;entryX=0;entryY=0.5;entryDx=0;entryDy=0;strokeWidth=2;fontStyle=1;fontSize=11;shape=link;" parent="1" source="UFfIpobfscu9w0N3v_Js-84" target="UFfIpobfscu9w0N3v_Js-88" edge="1">
          <mxGeometry relative="1" as="geometry">
            <mxPoint x="729.9999999999995" y="800.4705882352941" as="targetPoint" />
            <Array as="points" />
          </mxGeometry>
        </mxCell>
        <mxCell id="UFfIpobfscu9w0N3v_Js-84" value="Encomendas" style="whiteSpace=wrap;html=1;align=center;strokeWidth=2;fontStyle=1;fontSize=11;" parent="1" vertex="1">
          <mxGeometry x="570" y="770" width="100" height="40" as="geometry" />
        </mxCell>
        <mxCell id="UFfIpobfscu9w0N3v_Js-85" style="edgeStyle=orthogonalEdgeStyle;rounded=0;orthogonalLoop=1;jettySize=auto;html=1;exitX=0.5;exitY=1;exitDx=0;exitDy=0;endArrow=none;endFill=0;strokeWidth=2;fontStyle=1;fontSize=11;shape=link;entryX=0;entryY=0.5;entryDx=0;entryDy=0;" parent="1" source="UFfIpobfscu9w0N3v_Js-86" target="UFfIpobfscu9w0N3v_Js-84" edge="1">
          <mxGeometry relative="1" as="geometry">
            <mxPoint x="130" y="790" as="targetPoint" />
          </mxGeometry>
        </mxCell>
        <mxCell id="UFfIpobfscu9w0N3v_Js-86" value="encomendados" style="shape=rhombus;perimeter=rhombusPerimeter;whiteSpace=wrap;html=1;align=center;strokeWidth=2;fontStyle=1;fontSize=11;" parent="1" vertex="1">
          <mxGeometry x="100" y="490" width="120" height="60" as="geometry" />
        </mxCell>
        <mxCell id="UFfIpobfscu9w0N3v_Js-87" style="edgeStyle=orthogonalEdgeStyle;rounded=0;orthogonalLoop=1;jettySize=auto;html=1;exitX=0.5;exitY=0;exitDx=0;exitDy=0;endArrow=none;endFill=0;fillColor=#ffe6cc;strokeColor=#d79b00;strokeWidth=2;fontStyle=1;fontSize=11;jumpSize=1;entryX=-0.004;entryY=0.107;entryDx=0;entryDy=0;entryPerimeter=0;" parent="1" source="UFfIpobfscu9w0N3v_Js-88" target="UFfIpobfscu9w0N3v_Js-44" edge="1">
          <mxGeometry relative="1" as="geometry">
            <mxPoint x="800" y="690" as="targetPoint" />
            <Array as="points">
              <mxPoint x="795" y="634" />
            </Array>
          </mxGeometry>
        </mxCell>
        <mxCell id="UFfIpobfscu9w0N3v_Js-88" value="recebidas por" style="shape=rhombus;perimeter=rhombusPerimeter;whiteSpace=wrap;html=1;align=center;strokeWidth=2;fontStyle=1;fontSize=11;" parent="1" vertex="1">
          <mxGeometry x="735" y="760" width="120" height="60" as="geometry" />
        </mxCell>
        <mxCell id="UFfIpobfscu9w0N3v_Js-89" style="edgeStyle=orthogonalEdgeStyle;rounded=0;orthogonalLoop=1;jettySize=auto;html=1;entryX=1;entryY=0.5;entryDx=0;entryDy=0;endArrow=none;endFill=0;strokeWidth=2;fontStyle=1;fontSize=11;" parent="1" source="UFfIpobfscu9w0N3v_Js-90" target="UFfIpobfscu9w0N3v_Js-86" edge="1">
          <mxGeometry relative="1" as="geometry">
            <Array as="points">
              <mxPoint x="220" y="520" />
            </Array>
          </mxGeometry>
        </mxCell>
        <mxCell id="UFfIpobfscu9w0N3v_Js-90" value="quantidade" style="ellipse;whiteSpace=wrap;html=1;align=center;strokeWidth=2;fontStyle=1;fontSize=11;" parent="1" vertex="1">
          <mxGeometry x="170" y="540" width="100" height="40" as="geometry" />
        </mxCell>
        <mxCell id="UFfIpobfscu9w0N3v_Js-91" value="idEncomenda" style="ellipse;whiteSpace=wrap;html=1;align=center;fontStyle=5;strokeWidth=2;fontSize=11;" parent="1" vertex="1">
          <mxGeometry x="570" y="710" width="100" height="40" as="geometry" />
        </mxCell>
        <mxCell id="UFfIpobfscu9w0N3v_Js-92" style="edgeStyle=orthogonalEdgeStyle;rounded=0;orthogonalLoop=1;jettySize=auto;html=1;exitX=0;exitY=1;exitDx=0;exitDy=0;entryX=0.93;entryY=0.025;entryDx=0;entryDy=0;entryPerimeter=0;endArrow=none;endFill=0;strokeWidth=2;fontStyle=1;fontSize=11;" parent="1" source="UFfIpobfscu9w0N3v_Js-93" target="UFfIpobfscu9w0N3v_Js-27" edge="1">
          <mxGeometry relative="1" as="geometry" />
        </mxCell>
        <mxCell id="UFfIpobfscu9w0N3v_Js-93" value="IDTema" style="ellipse;whiteSpace=wrap;html=1;align=center;fontStyle=5;strokeWidth=2;fontSize=11;" parent="1" vertex="1">
          <mxGeometry x="360" y="430" width="100" height="40" as="geometry" />
        </mxCell>
        <mxCell id="UFfIpobfscu9w0N3v_Js-94" style="edgeStyle=orthogonalEdgeStyle;rounded=0;orthogonalLoop=1;jettySize=auto;html=1;exitX=0.893;exitY=1.025;exitDx=0;exitDy=0;entryX=0;entryY=0.5;entryDx=0;entryDy=0;endArrow=none;endFill=0;strokeWidth=2;fontStyle=1;fontSize=11;shape=link;exitPerimeter=0;" parent="1" source="UFfIpobfscu9w0N3v_Js-97" target="UFfIpobfscu9w0N3v_Js-103" edge="1">
          <mxGeometry relative="1" as="geometry" />
        </mxCell>
        <mxCell id="UFfIpobfscu9w0N3v_Js-97" value="Eventos" style="whiteSpace=wrap;html=1;align=center;strokeWidth=2;fontStyle=1;fontSize=11;" parent="1" vertex="1">
          <mxGeometry x="1185" y="470" width="100" height="40" as="geometry" />
        </mxCell>
        <mxCell id="UFfIpobfscu9w0N3v_Js-98" style="edgeStyle=orthogonalEdgeStyle;rounded=0;orthogonalLoop=1;jettySize=auto;html=1;exitX=0.5;exitY=0;exitDx=0;exitDy=0;endArrow=none;endFill=0;strokeWidth=2;fontStyle=1;fontSize=11;shape=link;" parent="1" source="UFfIpobfscu9w0N3v_Js-100" target="UFfIpobfscu9w0N3v_Js-109" edge="1">
          <mxGeometry relative="1" as="geometry">
            <mxPoint x="1535" y="310" as="targetPoint" />
          </mxGeometry>
        </mxCell>
        <mxCell id="2EIyda0t5m5wA7VZ1ddX-7" style="edgeStyle=orthogonalEdgeStyle;rounded=0;orthogonalLoop=1;jettySize=auto;html=1;exitX=0;exitY=0.5;exitDx=0;exitDy=0;entryX=0.5;entryY=0;entryDx=0;entryDy=0;endArrow=none;endFill=0;strokeWidth=2;" edge="1" parent="1" source="UFfIpobfscu9w0N3v_Js-100" target="UFfIpobfscu9w0N3v_Js-103">
          <mxGeometry relative="1" as="geometry" />
        </mxCell>
        <mxCell id="UFfIpobfscu9w0N3v_Js-100" value="Palestras" style="whiteSpace=wrap;html=1;align=center;strokeWidth=2;fontStyle=1;fontSize=11;" parent="1" vertex="1">
          <mxGeometry x="1340" y="592" width="100" height="40" as="geometry" />
        </mxCell>
        <mxCell id="UFfIpobfscu9w0N3v_Js-103" value="" style="triangle;whiteSpace=wrap;html=1;rotation=90;strokeWidth=2;fontStyle=1;fontSize=11;" parent="1" vertex="1">
          <mxGeometry x="1260" y="540" width="60" height="80" as="geometry" />
        </mxCell>
        <mxCell id="UFfIpobfscu9w0N3v_Js-104" value="ISA" style="text;html=1;align=center;verticalAlign=middle;resizable=0;points=[];autosize=1;strokeColor=none;strokeWidth=2;fontStyle=1;fontSize=11;" parent="1" vertex="1">
          <mxGeometry x="1275" y="549.5" width="30" height="20" as="geometry" />
        </mxCell>
        <mxCell id="UFfIpobfscu9w0N3v_Js-105" style="edgeStyle=orthogonalEdgeStyle;rounded=0;orthogonalLoop=1;jettySize=auto;html=1;exitX=0.25;exitY=1;exitDx=0;exitDy=0;startArrow=none;startFill=0;endArrow=none;endFill=0;strokeWidth=2;fontStyle=1;fontSize=11;shape=link;" parent="1" source="UFfIpobfscu9w0N3v_Js-107" target="UFfIpobfscu9w0N3v_Js-114" edge="1">
          <mxGeometry relative="1" as="geometry">
            <mxPoint x="1235" y="920" as="targetPoint" />
          </mxGeometry>
        </mxCell>
        <mxCell id="2EIyda0t5m5wA7VZ1ddX-4" style="edgeStyle=orthogonalEdgeStyle;rounded=0;orthogonalLoop=1;jettySize=auto;html=1;exitX=0.5;exitY=0;exitDx=0;exitDy=0;entryX=0.5;entryY=1;entryDx=0;entryDy=0;strokeWidth=2;endArrow=none;endFill=0;" edge="1" parent="1" source="UFfIpobfscu9w0N3v_Js-107" target="UFfIpobfscu9w0N3v_Js-103">
          <mxGeometry relative="1" as="geometry" />
        </mxCell>
        <mxCell id="UFfIpobfscu9w0N3v_Js-107" value="Filmes" style="whiteSpace=wrap;html=1;align=center;strokeWidth=2;fontStyle=1;fontSize=11;" parent="1" vertex="1">
          <mxGeometry x="1150" y="601" width="100" height="40" as="geometry" />
        </mxCell>
        <mxCell id="UFfIpobfscu9w0N3v_Js-108" style="edgeStyle=orthogonalEdgeStyle;rounded=0;orthogonalLoop=1;jettySize=auto;html=1;exitX=0;exitY=0.5;exitDx=0;exitDy=0;endArrow=none;endFill=0;strokeWidth=2;fontStyle=1;fontSize=11;" parent="1" source="UFfIpobfscu9w0N3v_Js-109" edge="1">
          <mxGeometry relative="1" as="geometry">
            <mxPoint x="1000" y="380" as="targetPoint" />
          </mxGeometry>
        </mxCell>
        <mxCell id="UFfIpobfscu9w0N3v_Js-109" value="apresentadas por&amp;nbsp;" style="shape=rhombus;perimeter=rhombusPerimeter;whiteSpace=wrap;html=1;align=center;strokeWidth=2;fontStyle=1;fontSize=11;" parent="1" vertex="1">
          <mxGeometry x="1330" y="350" width="120" height="60" as="geometry" />
        </mxCell>
        <mxCell id="2EIyda0t5m5wA7VZ1ddX-10" style="edgeStyle=orthogonalEdgeStyle;rounded=0;orthogonalLoop=1;jettySize=auto;html=1;exitX=1;exitY=0.5;exitDx=0;exitDy=0;entryX=0;entryY=0.75;entryDx=0;entryDy=0;endArrow=none;endFill=0;strokeWidth=2;" edge="1" parent="1" source="UFfIpobfscu9w0N3v_Js-110" target="UFfIpobfscu9w0N3v_Js-97">
          <mxGeometry relative="1" as="geometry" />
        </mxCell>
        <mxCell id="UFfIpobfscu9w0N3v_Js-110" value="&lt;u style=&quot;font-size: 11px;&quot;&gt;DataEvento&lt;/u&gt;" style="ellipse;whiteSpace=wrap;html=1;align=center;strokeWidth=2;fontStyle=1;fontSize=11;" parent="1" vertex="1">
          <mxGeometry x="1060" y="480" width="100" height="40" as="geometry" />
        </mxCell>
        <mxCell id="2EIyda0t5m5wA7VZ1ddX-11" style="edgeStyle=orthogonalEdgeStyle;rounded=0;orthogonalLoop=1;jettySize=auto;html=1;exitX=1;exitY=0.5;exitDx=0;exitDy=0;entryX=0.101;entryY=0.022;entryDx=0;entryDy=0;entryPerimeter=0;endArrow=none;endFill=0;strokeWidth=2;" edge="1" parent="1" source="UFfIpobfscu9w0N3v_Js-112" target="UFfIpobfscu9w0N3v_Js-97">
          <mxGeometry relative="1" as="geometry" />
        </mxCell>
        <mxCell id="UFfIpobfscu9w0N3v_Js-112" value="&lt;u style=&quot;font-size: 11px;&quot;&gt;HoraEventoInicio&lt;/u&gt;" style="ellipse;whiteSpace=wrap;html=1;align=center;strokeWidth=2;fontStyle=1;fontSize=11;" parent="1" vertex="1">
          <mxGeometry x="1070" y="430" width="100" height="40" as="geometry" />
        </mxCell>
        <mxCell id="UFfIpobfscu9w0N3v_Js-114" value="baseados&amp;nbsp;em" style="shape=rhombus;perimeter=rhombusPerimeter;whiteSpace=wrap;html=1;align=center;strokeWidth=2;fontStyle=1;fontSize=11;" parent="1" vertex="1">
          <mxGeometry x="1174.9999999999995" y="870" width="120" height="60" as="geometry" />
        </mxCell>
        <mxCell id="UFfIpobfscu9w0N3v_Js-116" value="disjoints" style="text;html=1;align=center;verticalAlign=middle;resizable=0;points=[];autosize=1;strokeColor=none;strokeWidth=2;fontStyle=1;fontSize=11;" parent="1" vertex="1">
          <mxGeometry x="910" y="777" width="60" height="20" as="geometry" />
        </mxCell>
        <mxCell id="2EIyda0t5m5wA7VZ1ddX-12" style="edgeStyle=orthogonalEdgeStyle;rounded=0;orthogonalLoop=1;jettySize=auto;html=1;exitX=0.5;exitY=1;exitDx=0;exitDy=0;entryX=0.25;entryY=0;entryDx=0;entryDy=0;endArrow=none;endFill=0;strokeWidth=2;" edge="1" parent="1" source="UFfIpobfscu9w0N3v_Js-118" target="UFfIpobfscu9w0N3v_Js-97">
          <mxGeometry relative="1" as="geometry" />
        </mxCell>
        <mxCell id="UFfIpobfscu9w0N3v_Js-118" value="HoraEventoFim" style="ellipse;whiteSpace=wrap;html=1;align=center;strokeWidth=2;fontStyle=1;fontSize=11;" parent="1" vertex="1">
          <mxGeometry x="1150" y="390" width="100" height="40" as="geometry" />
        </mxCell>
        <mxCell id="UFfIpobfscu9w0N3v_Js-119" style="edgeStyle=orthogonalEdgeStyle;rounded=0;orthogonalLoop=1;jettySize=auto;html=1;exitX=0.301;exitY=0.019;exitDx=0;exitDy=0;entryX=0.5;entryY=1;entryDx=0;entryDy=0;startArrow=none;startFill=0;endArrow=none;endFill=0;strokeWidth=2;fontStyle=1;fontSize=11;exitPerimeter=0;" parent="1" source="UFfIpobfscu9w0N3v_Js-120" target="UFfIpobfscu9w0N3v_Js-100" edge="1">
          <mxGeometry relative="1" as="geometry">
            <Array as="points" />
          </mxGeometry>
        </mxCell>
        <mxCell id="UFfIpobfscu9w0N3v_Js-120" value="Tópico" style="ellipse;whiteSpace=wrap;html=1;align=center;strokeWidth=2;fontStyle=1;fontSize=11;" parent="1" vertex="1">
          <mxGeometry x="1360" y="641" width="100" height="40" as="geometry" />
        </mxCell>
        <mxCell id="2EIyda0t5m5wA7VZ1ddX-13" style="edgeStyle=orthogonalEdgeStyle;rounded=0;orthogonalLoop=1;jettySize=auto;html=1;exitX=0;exitY=1;exitDx=0;exitDy=0;entryX=0.5;entryY=0;entryDx=0;entryDy=0;endArrow=none;endFill=0;strokeWidth=2;" edge="1" parent="1" source="UFfIpobfscu9w0N3v_Js-122" target="UFfIpobfscu9w0N3v_Js-97">
          <mxGeometry relative="1" as="geometry" />
        </mxCell>
        <mxCell id="UFfIpobfscu9w0N3v_Js-122" value="capacidade" style="ellipse;whiteSpace=wrap;html=1;align=center;strokeWidth=2;fontStyle=1;fontSize=11;" parent="1" vertex="1">
          <mxGeometry x="1250" y="400" width="100" height="40" as="geometry" />
        </mxCell>
        <mxCell id="2EIyda0t5m5wA7VZ1ddX-9" style="edgeStyle=orthogonalEdgeStyle;rounded=0;orthogonalLoop=1;jettySize=auto;html=1;exitX=0;exitY=0.5;exitDx=0;exitDy=0;entryX=0.75;entryY=1;entryDx=0;entryDy=0;endArrow=none;endFill=0;strokeWidth=2;" edge="1" parent="1" source="UFfIpobfscu9w0N3v_Js-124" target="UFfIpobfscu9w0N3v_Js-107">
          <mxGeometry relative="1" as="geometry" />
        </mxCell>
        <mxCell id="UFfIpobfscu9w0N3v_Js-124" value="duração" style="ellipse;whiteSpace=wrap;html=1;align=center;strokeWidth=2;fontStyle=1;fontSize=11;" parent="1" vertex="1">
          <mxGeometry x="1240" y="641" width="100" height="40" as="geometry" />
        </mxCell>
        <mxCell id="UFfIpobfscu9w0N3v_Js-125" style="edgeStyle=orthogonalEdgeStyle;rounded=0;orthogonalLoop=1;jettySize=auto;html=1;exitX=0;exitY=0.5;exitDx=0;exitDy=0;endArrow=none;endFill=0;entryX=0.37;entryY=-0.05;entryDx=0;entryDy=0;entryPerimeter=0;strokeWidth=2;fontStyle=1;fontSize=11;" parent="1" source="UFfIpobfscu9w0N3v_Js-126" target="UFfIpobfscu9w0N3v_Js-31" edge="1">
          <mxGeometry relative="1" as="geometry">
            <mxPoint x="909.9999999999995" y="589.8823529411766" as="targetPoint" />
          </mxGeometry>
        </mxCell>
        <mxCell id="2EIyda0t5m5wA7VZ1ddX-5" style="edgeStyle=orthogonalEdgeStyle;rounded=0;orthogonalLoop=1;jettySize=auto;html=1;exitX=1;exitY=0.5;exitDx=0;exitDy=0;entryX=0.088;entryY=1.047;entryDx=0;entryDy=0;entryPerimeter=0;endArrow=none;endFill=0;strokeWidth=2;" edge="1" parent="1" source="UFfIpobfscu9w0N3v_Js-126" target="UFfIpobfscu9w0N3v_Js-97">
          <mxGeometry relative="1" as="geometry" />
        </mxCell>
        <mxCell id="UFfIpobfscu9w0N3v_Js-126" value="assistiram" style="shape=rhombus;perimeter=rhombusPerimeter;whiteSpace=wrap;html=1;align=center;strokeWidth=2;fontStyle=1;fontSize=11;" parent="1" vertex="1">
          <mxGeometry x="1040" y="541" width="120" height="60" as="geometry" />
        </mxCell>
        <mxCell id="UFfIpobfscu9w0N3v_Js-128" value="IDUsuário" style="ellipse;whiteSpace=wrap;html=1;align=center;strokeWidth=2;fontStyle=1;fontSize=11;" parent="1" vertex="1">
          <mxGeometry x="600" y="550" width="100" height="40" as="geometry" />
        </mxCell>
        <mxCell id="UFfIpobfscu9w0N3v_Js-129" value="IDEmpregado" style="ellipse;whiteSpace=wrap;html=1;align=center;strokeWidth=2;fontStyle=1;fontSize=11;" parent="1" vertex="1">
          <mxGeometry x="890" y="680" width="100" height="40" as="geometry" />
        </mxCell>
        <mxCell id="UFfIpobfscu9w0N3v_Js-130" value="numCartão" style="ellipse;whiteSpace=wrap;html=1;align=center;strokeWidth=2;fontStyle=1;fontSize=11;" parent="1" vertex="1">
          <mxGeometry x="545" y="600" width="100" height="40" as="geometry" />
        </mxCell>
        <mxCell id="2EIyda0t5m5wA7VZ1ddX-8" style="edgeStyle=orthogonalEdgeStyle;rounded=0;orthogonalLoop=1;jettySize=auto;html=1;exitX=0;exitY=0;exitDx=0;exitDy=0;entryX=0.547;entryY=0.975;entryDx=0;entryDy=0;entryPerimeter=0;endArrow=none;endFill=0;strokeWidth=2;" edge="1" parent="1" source="UFfIpobfscu9w0N3v_Js-131" target="UFfIpobfscu9w0N3v_Js-107">
          <mxGeometry relative="1" as="geometry" />
        </mxCell>
        <mxCell id="UFfIpobfscu9w0N3v_Js-131" value="nomeFilme" style="ellipse;whiteSpace=wrap;html=1;align=center;strokeWidth=2;fontStyle=1;fontSize=11;" parent="1" vertex="1">
          <mxGeometry x="1190" y="681" width="100" height="40" as="geometry" />
        </mxCell>
        <mxCell id="UFfIpobfscu9w0N3v_Js-132" value="Disjoins" style="text;html=1;align=center;verticalAlign=middle;resizable=0;points=[];autosize=1;strokeColor=none;strokeWidth=2;fontStyle=1;fontSize=11;" parent="1" vertex="1">
          <mxGeometry x="1260" y="560.5" width="60" height="20" as="geometry" />
        </mxCell>
        <mxCell id="UFfIpobfscu9w0N3v_Js-133" style="edgeStyle=orthogonalEdgeStyle;rounded=0;orthogonalLoop=1;jettySize=auto;html=1;exitX=1;exitY=0.5;exitDx=0;exitDy=0;entryX=0;entryY=0;entryDx=0;entryDy=0;endArrow=none;endFill=0;" parent="1" source="UFfIpobfscu9w0N3v_Js-134" target="UFfIpobfscu9w0N3v_Js-50" edge="1">
          <mxGeometry relative="1" as="geometry">
            <Array as="points">
              <mxPoint x="690" y="510" />
            </Array>
          </mxGeometry>
        </mxCell>
        <mxCell id="UFfIpobfscu9w0N3v_Js-134" value="&lt;font size=&quot;1&quot;&gt;registoEntrada&lt;/font&gt;" style="ellipse;whiteSpace=wrap;html=1;align=center;strokeWidth=2;fontStyle=1;fontSize=11;" parent="1" vertex="1">
          <mxGeometry x="610" y="490" width="80" height="40" as="geometry" />
        </mxCell>
        <mxCell id="UFfIpobfscu9w0N3v_Js-148" style="edgeStyle=orthogonalEdgeStyle;rounded=0;orthogonalLoop=1;jettySize=auto;html=1;exitX=0.5;exitY=1;exitDx=0;exitDy=0;entryX=0.5;entryY=0;entryDx=0;entryDy=0;startArrow=none;startFill=0;endArrow=none;endFill=0;strokeColor=#000000;strokeWidth=2;" parent="1" source="UFfIpobfscu9w0N3v_Js-135" target="UFfIpobfscu9w0N3v_Js-50" edge="1">
          <mxGeometry relative="1" as="geometry" />
        </mxCell>
        <mxCell id="UFfIpobfscu9w0N3v_Js-135" value="leram" style="shape=rhombus;perimeter=rhombusPerimeter;whiteSpace=wrap;html=1;align=center;strokeWidth=2;fontStyle=1;fontSize=11;" parent="1" vertex="1">
          <mxGeometry x="695" y="440" width="120" height="60" as="geometry" />
        </mxCell>
        <mxCell id="UFfIpobfscu9w0N3v_Js-137" value="" style="endArrow=none;html=1;strokeWidth=2;exitX=0;exitY=0.5;exitDx=0;exitDy=0;edgeStyle=orthogonalEdgeStyle;rounded=0;entryX=0.75;entryY=1;entryDx=0;entryDy=0;" parent="1" source="UFfIpobfscu9w0N3v_Js-135" target="UFfIpobfscu9w0N3v_Js-7" edge="1">
          <mxGeometry width="50" height="50" relative="1" as="geometry">
            <mxPoint x="645" y="430" as="sourcePoint" />
            <mxPoint x="610" y="390" as="targetPoint" />
            <Array as="points">
              <mxPoint x="620" y="470" />
              <mxPoint x="620" y="380" />
              <mxPoint x="533" y="380" />
            </Array>
          </mxGeometry>
        </mxCell>
        <mxCell id="UFfIpobfscu9w0N3v_Js-144" style="edgeStyle=orthogonalEdgeStyle;rounded=0;orthogonalLoop=1;jettySize=auto;html=1;exitX=1;exitY=0.5;exitDx=0;exitDy=0;entryX=0;entryY=0.5;entryDx=0;entryDy=0;startArrow=none;startFill=0;endArrow=none;endFill=0;strokeColor=#000000;strokeWidth=2;" parent="1" source="UFfIpobfscu9w0N3v_Js-143" target="UFfIpobfscu9w0N3v_Js-59" edge="1">
          <mxGeometry relative="1" as="geometry">
            <Array as="points">
              <mxPoint x="320" y="680" />
            </Array>
          </mxGeometry>
        </mxCell>
        <mxCell id="UFfIpobfscu9w0N3v_Js-143" value="entregue" style="ellipse;whiteSpace=wrap;html=1;align=center;strokeWidth=2;fontStyle=1;fontSize=11;" parent="1" vertex="1">
          <mxGeometry x="220" y="690" width="100" height="40" as="geometry" />
        </mxCell>
        <mxCell id="UFfIpobfscu9w0N3v_Js-146" style="edgeStyle=orthogonalEdgeStyle;rounded=0;orthogonalLoop=1;jettySize=auto;html=1;exitX=0.197;exitY=0.933;exitDx=0;exitDy=0;entryX=0.849;entryY=-0.045;entryDx=0;entryDy=0;entryPerimeter=0;startArrow=none;startFill=0;endArrow=none;endFill=0;strokeColor=#000000;strokeWidth=2;exitPerimeter=0;" parent="1" source="UFfIpobfscu9w0N3v_Js-145" target="UFfIpobfscu9w0N3v_Js-7" edge="1">
          <mxGeometry relative="1" as="geometry">
            <Array as="points">
              <mxPoint x="560" y="260" />
              <mxPoint x="560" y="300" />
              <mxPoint x="543" y="300" />
            </Array>
          </mxGeometry>
        </mxCell>
        <mxCell id="UFfIpobfscu9w0N3v_Js-145" value="NumCopias" style="ellipse;whiteSpace=wrap;html=1;align=center;strokeWidth=2;fontStyle=1;fontSize=11;" parent="1" vertex="1">
          <mxGeometry x="530" y="248" width="100" height="40" as="geometry" />
        </mxCell>
      </root>
    </mxGraphModel>
  </diagram>
</mxfile>
